<svg version="1.2" xmlns="http://www.w3.org/2000/svg" viewBox="0 0 276 262" width="276" height="262">
	<title>moovsec-log-svg</title>
	<style>
		.s0 { fill: #fbfbfb } 
		.s1 { fill: #029845 } 
		.s2 { fill: #01a84d } 
		.s3 { fill: #fafafa } 
	</style>
	<g>
		<path class="s0" d="m-568.5 105.1c0.3-18.1 3.8-34.8 15.1-49 28.3-35.9 83.8-28.2 101 14 0.3 0.7 0.4 1.6 0.9 2.3 0.8 1.1 1.8 2.1 2.8 3.2 1.1-1.1 2.5-2 3.2-3.3 4.1-6.6 7.2-14 12-19.9 13.8-16.9 32.4-21.5 53.1-17.8 29.3 5.2 48 26 51.3 56.2 0.6 5.8 0.9 11.7 0.9 17.5 0.1 38.3 0.1 76.6 0.1 115.3-6.5 0-12.9 0-19.8 0q0-2.6 0-5.3c0-36.6 0.4-73.3-0.2-109.9-0.1-9.8-1.9-20-5-29.3-6-18-20.7-27.6-39.5-27.9-17.8-0.3-32.2 9.4-39.5 26.7-5 11.7-6.6 24-6.6 36.5-0.1 34.5 0 69 0 103.5 0 1.8 0 3.7 0 5.8-6.4 0-12.6 0-19.3 0q0-2.8 0-5.4 0-52 0-104c0-12.2-1.5-24.2-6.3-35.6-8.3-19.2-23.4-28.8-42.5-27.4-20 1.5-34.1 13.4-39.1 33.9-1.8 7.5-2.9 15.4-3 23.2-0.3 38.3-0.1 76.6-0.1 115.3-6.3 0-12.6 0-19.5 0 0-39.3 0-78.7 0-118.6z"/>
		<path class="s1" d="m5.7 0.6c9.4 6.3 18.9 12.5 28.3 19 31.4 21.7 62.8 43.6 94.2 65.4 3 2.1 6.1 4 9.5 6.5 0.3 54 0.3 107.5 0.4 161.1 0 1.8 1.2 3.6 1.8 5.4-0.7 1-1.5 1.9-3 3.9-4.1-8.6-7.9-16.4-11.8-24.9-0.5-0.8-0.8-0.9-1.2-1 0 0 0.1 0 0.4-0.3-0.3-0.7-0.8-1.2-1.4-1.7 0 0 0.1 0 0.3-0.3-0.2-0.7-0.8-1.2-1.3-1.7 0 0 0.1 0 0.3-0.3-0.3-0.8-0.8-1.2-1.3-1.7 0 0 0.1 0 0.3-0.3-0.3-0.8-0.8-1.2-1.3-1.7 0 0 0.1 0 0.3-0.3-0.3-0.8-0.8-1.2-1.3-1.7 0 0 0.1 0 0.3-0.3-0.3-0.8-0.8-1.2-1.3-1.7 0 0 0.1 0 0.2-0.3-0.3-0.8-0.7-1.2-1.2-1.7 0 0 0.1 0 0.2-0.3-0.3-0.8-0.7-1.2-1.2-1.7 0 0 0.1 0 0.2-0.4-0.4-0.8-0.9-1.2-1.4-1.7-0.3-0.4-0.6-0.9-0.7-1.9-1.9-4.5-3.8-8.5-5.6-12.6-1.8-2.9-3.5-5.8-5.3-9.4-0.5-0.8-0.8-0.9-1.2-1 0 0 0.1 0 0.4-0.3-0.3-0.7-0.8-1.2-1.4-1.7 0 0 0.1 0 0.3-0.3-0.2-0.7-0.8-1.2-1.3-1.7 0 0 0.1 0 0.3-0.3-0.3-0.8-0.8-1.2-1.3-1.7 0 0 0.1 0 0.3-0.3-0.3-0.8-0.8-1.2-1.3-1.7 0 0 0.1 0 0.3-0.3-0.3-0.8-0.8-1.2-1.3-1.7 0 0 0.1 0 0.3-0.3-0.3-0.8-0.8-1.2-1.3-1.7 0 0 0.1 0 0.2-0.3-0.3-0.8-0.7-1.2-1.2-1.7 0 0 0.1 0 0.2-0.3-0.3-0.8-0.7-1.2-1.2-1.7 0 0 0.1 0 0.2-0.4-0.4-0.8-0.9-1.2-1.4-1.7-0.3-0.4-0.5-0.8-0.7-1.8-1.8-4.6-3.7-8.6-5.6-12.7-2.1-3.5-4.1-7.1-6.3-11.4-0.5-0.8-0.8-0.9-1.2-1 0 0 0.1 0 0.4-0.3-0.3-0.7-0.8-1.2-1.4-1.7 0 0 0.1 0 0.3-0.3-0.2-0.7-0.8-1.2-1.3-1.7 0 0 0.1 0 0.3-0.3-0.3-0.8-0.8-1.2-1.3-1.7 0 0 0.1 0 0.3-0.3-0.3-0.8-0.8-1.2-1.3-1.7 0 0 0.1 0 0.3-0.3-0.3-0.8-0.8-1.2-1.3-1.7 0 0 0.1 0 0.3-0.3-0.3-0.8-0.8-1.2-1.3-1.7 0 0 0.1 0 0.2-0.3-0.3-0.8-0.7-1.2-1.2-1.7 0 0 0.1 0 0.2-0.3-0.3-0.8-0.7-1.2-1.2-1.7 0 0 0.1 0 0.2-0.4-0.4-0.8-0.9-1.2-1.4-1.7-0.3-0.4-0.5-0.9-0.7-1.8-1.9-4.6-3.8-8.6-5.6-12.7-1.8-2.9-3.5-5.8-5.3-9.4-0.5-0.8-0.8-0.9-1.2-1 0 0 0.1 0 0.4-0.3-0.3-0.7-0.8-1.2-1.4-1.7 0 0 0.1 0 0.3-0.3-0.2-0.7-0.8-1.2-1.3-1.7 0 0 0.1 0 0.3-0.3-0.3-0.8-0.8-1.2-1.3-1.7 0 0 0.1 0 0.3-0.3-0.3-0.8-0.8-1.2-1.3-1.7 0 0 0.1 0 0.3-0.3-0.3-0.8-0.8-1.2-1.3-1.7 0 0 0.1 0 0.3-0.3-0.3-0.8-0.8-1.2-1.3-1.7 0 0 0.1 0 0.2-0.3-0.3-0.8-0.7-1.2-1.2-1.7 0 0 0.1 0 0.2-0.3-0.3-0.8-0.7-1.2-1.2-1.7 0 0 0.1 0 0.2-0.4-0.4-0.8-0.9-1.2-1.4-1.7-0.3-0.4-0.5-0.8-0.7-1.8-1.8-4.6-3.7-8.6-5.6-12.7-2.1-3.5-4.1-7.1-6.3-11.4-0.4-0.8-0.8-0.9-1.2-1 0 0 0.1 0 0.4-0.3-0.3-0.7-0.9-1.2-1.4-1.7 0 0 0.1 0 0.3-0.3-0.2-0.7-0.8-1.2-1.3-1.7 0 0 0.1 0 0.3-0.3-0.3-0.8-0.8-1.2-1.3-1.7 0 0 0.1 0 0.3-0.3-0.3-0.8-0.8-1.2-1.3-1.7 0 0 0.1 0 0.3-0.3-0.3-0.8-0.8-1.2-1.3-1.7 0 0 0.1 0 0.3-0.3-0.3-0.8-0.8-1.2-1.3-1.7 0 0 0.1 0 0.2-0.3-0.3-0.8-0.7-1.2-1.2-1.7 0 0 0.1 0 0.2-0.3-0.3-0.8-0.7-1.2-1.2-1.7 0 0 0.1 0 0.2-0.4-0.4-0.8-0.9-1.2-1.4-1.7-0.3-0.4-0.6-0.9-0.7-1.8-1.5-3.9-3.1-7.3-4.7-10.7-2-3.5-4-7.1-6.2-11.4-0.4-0.8-0.8-0.9-1.2-1 0 0 0.1 0 0.4-0.3-0.3-0.7-0.8-1.2-1.4-1.7 0 0 0.1 0 0.3-0.3-0.2-0.7-0.8-1.2-1.3-1.7 0 0 0.1 0 0.3-0.3-0.3-0.8-0.8-1.2-1.3-1.7 0 0 0.1 0 0.3-0.3-0.3-0.8-0.8-1.2-1.3-1.7 0 0 0.1 0 0.3-0.3-0.3-0.8-0.8-1.2-1.3-1.7 0 0 0.1 0 0.3-0.3-0.3-0.8-0.8-1.2-1.3-1.7 0 0 0.1 0 0.2-0.3-0.3-0.8-0.7-1.2-1.2-1.7 0 0 0.1 0 0.3-0.2 0.3-0.9 0.4-1.6 0.5-2.2z"/>
		<path class="s2" d="m140.1 257.7c-0.8-1.5-2-3.3-2-5.1-0.1-53.6-0.1-107.1-0.1-161.1 8.3-5.9 16.7-11.3 24.9-17 11.3-7.8 22.5-15.8 33.8-23.7q34.3-23.9 68.7-47.7c1.2-0.8 2.5-1.4 4.9-2.8-0.6 2.5-0.9 3.9-1.7 5.8-0.8 1.2-1.2 2.1-1.6 3 0 0 0-0.1-0.3-0.1-0.4 0.7-0.6 1.4-0.7 2.1 0 0 0-0.1-0.3-0.1-0.5 0.7-0.6 1.4-0.7 2.1 0 0 0-0.1-0.3-0.1-0.5 0.7-0.6 1.4-0.7 2.1 0 0 0-0.1-0.3-0.1-0.5 0.7-0.6 1.4-0.7 2.1 0 0 0-0.1-0.3-0.1-0.5 0.7-0.6 1.4-0.7 2.1 0 0 0-0.1-0.3-0.1-0.5 0.7-0.6 1.4-0.7 2.1 0 0 0-0.1-0.3-0.1-0.5 0.7-0.6 1.4-0.7 2.1 0 0 0-0.1-0.3-0.1-0.5 0.7-0.6 1.4-0.7 2.1 0 0 0-0.1-0.3-0.1-0.5 0.7-0.6 1.4-0.7 2.1 0 0 0-0.1-0.3-0.1-0.5 0.7-0.6 1.4-0.7 2.1 0 0 0-0.1-0.4-0.1-0.4 0.6-0.5 1.4-0.6 2.1 0 0 0-0.1-0.3-0.2-0.4 0.3-0.5 0.7-0.6 1.2-2.7 5.5-5.4 11-8.3 17-0.4 0.7-0.6 0.9-0.9 0.9 0 0 0.1 0-0.2 0-0.4 0.8-0.6 1.4-0.7 2.1 0 0 0-0.1-0.3-0.1-0.4 0.8-0.6 1.4-0.7 2.1 0 0 0-0.1-0.3-0.1-0.5 0.7-0.6 1.4-0.7 2.1 0 0 0-0.1-0.3-0.1-0.5 0.7-0.6 1.4-0.7 2.1 0 0 0-0.1-0.3-0.1-0.5 0.7-0.6 1.4-0.7 2.1 0 0 0-0.1-0.3-0.1-0.5 0.7-0.6 1.4-0.7 2.1 0 0 0-0.1-0.3-0.1-0.5 0.7-0.6 1.4-0.7 2.1 0 0 0-0.1-0.3-0.1-0.5 0.7-0.6 1.4-0.7 2.1 0 0 0-0.1-0.3-0.1-0.5 0.7-0.6 1.4-0.7 2.1 0 0 0-0.1-0.3-0.1-0.5 0.7-0.6 1.4-0.7 2.1 0 0 0-0.1-0.3-0.1-0.5 0.7-0.6 1.4-0.7 2.1 0 0 0-0.1-0.4-0.1-0.4 0.6-0.5 1.4-0.6 2.1 0 0 0-0.1-0.3-0.2-0.4 0.3-0.5 0.7-0.6 1.2-3 6.2-6 12.4-9.5 19-0.8 1.2-1.2 2.1-1.6 3 0 0 0-0.1-0.3-0.1-0.5 0.7-0.6 1.4-0.7 2.1 0 0 0-0.1-0.3-0.1-0.5 0.7-0.6 1.4-0.7 2.1 0 0 0-0.1-0.3-0.1-0.5 0.7-0.6 1.4-0.7 2.1 0 0 0-0.1-0.3-0.1-0.5 0.7-0.6 1.4-0.7 2.1 0 0 0-0.1-0.3-0.1-0.5 0.7-0.6 1.4-0.7 2.1 0 0 0-0.1-0.3-0.1-0.5 0.7-0.6 1.4-0.7 2.1 0 0 0-0.1-0.3-0.1-0.5 0.7-0.6 1.4-0.7 2.1 0 0 0-0.1-0.3-0.1-0.5 0.7-0.6 1.4-0.7 2.1 0 0 0-0.1-0.3-0.1-0.5 0.7-0.6 1.4-0.7 2.1 0 0 0-0.1-0.3-0.1-0.5 0.6-0.6 1.4-0.7 2.1 0 0 0-0.1-0.4-0.1-0.4 0.6-0.5 1.4-0.6 2.1 0 0 0-0.1-0.3-0.2-0.4 0.3-0.5 0.7-0.6 1.2-2.4 4.8-4.7 9.7-7.3 15.1-0.4 0.7-0.6 0.8-0.9 0.8 0 0 0.1-0.1-0.3 0.1-0.4 0.9-0.5 1.7-0.6 2.4 0 0-0.1 0-0.4 0.1-0.5 0.5-0.5 1-0.6 1.5 0 0 0-0.1-0.3-0.1-0.4 0.8-0.6 1.4-0.7 2.1 0 0 0-0.1-0.3-0.1-0.5 0.7-0.6 1.4-0.7 2.1 0 0 0-0.1-0.3-0.1-0.5 0.7-0.6 1.4-0.7 2.1 0 0 0-0.1-0.3-0.1-0.5 0.7-0.6 1.4-0.7 2.1 0 0 0-0.1-0.3-0.1-0.5 0.7-0.6 1.4-0.7 2.1 0 0 0-0.1-0.3-0.1-0.5 0.7-0.6 1.4-0.7 2.1 0 0 0-0.1-0.3-0.1-0.5 0.7-0.6 1.4-0.7 2.1 0 0 0-0.1-0.3-0.1-0.5 0.7-0.6 1.4-0.7 2.1 0 0 0-0.1-0.3-0.1-0.5 0.7-0.6 1.4-0.7 2.1 0 0 0-0.1-0.3-0.1-0.5 0.7-0.6 1.4-0.7 2.1 0 0 0-0.1-0.4-0.1-0.4 0.6-0.5 1.4-0.6 2.1 0 0 0-0.1-0.3-0.2-0.4 0.3-0.5 0.7-0.6 1.2-3 6.2-6 12.4-9.5 19-0.8 1.2-1.2 2.1-1.6 3 0 0 0-0.1-0.3-0.1-0.5 0.8-0.6 1.4-0.7 2.1 0 0 0-0.1-0.3-0.1-0.5 0.7-0.6 1.4-0.7 2.1 0 0 0-0.1-0.3-0.1-0.5 0.7-0.6 1.4-0.7 2.1 0 0 0-0.1-0.3-0.1-0.5 0.7-0.6 1.4-0.7 2.1 0 0 0-0.1-0.3-0.1-0.5 0.7-0.6 1.4-0.7 2.1 0 0 0-0.1-0.3-0.1-0.5 0.7-0.6 1.4-0.7 2.1 0 0 0-0.1-0.3-0.1-0.5 0.7-0.6 1.4-0.7 2.1 0 0 0-0.1-0.3-0.1-0.5 0.7-0.6 1.4-0.7 2.1 0 0 0-0.1-0.3-0.1-0.5 0.7-0.6 1.4-0.7 2.1 0 0 0-0.1-0.3-0.1-0.5 0.6-0.6 1.4-0.7 2.1 0 0 0-0.1-0.4-0.1-0.4 0.6-0.5 1.4-0.6 2.1 0 0 0-0.1-0.3-0.2-0.4 0.3-0.5 0.7-0.6 1.2-2.7 5.5-5.4 11-8.5 17-0.8 1.2-1.2 2.1-1.6 3 0 0 0-0.1-0.3-0.1-0.4 0.8-0.6 1.4-0.7 2.1 0 0 0-0.1-0.3-0.1-0.5 0.8-0.6 1.4-0.7 2.1 0 0 0-0.1-0.3-0.1-0.5 0.7-0.6 1.4-0.7 2.1 0 0 0-0.1-0.3-0.1-0.5 0.7-0.6 1.4-0.7 2.1 0 0 0-0.1-0.3-0.1-0.5 0.7-0.6 1.4-0.7 2.1 0 0 0-0.1-0.3-0.1-0.5 0.7-0.6 1.4-0.7 2.1 0 0 0-0.1-0.3-0.1-0.5 0.7-0.6 1.4-0.7 2.1 0 0 0-0.1-0.3-0.1-0.5 0.7-0.6 1.4-0.7 2.1 0 0 0-0.1-0.3-0.1-0.5 0.7-0.6 1.4-0.7 2.1 0 0 0-0.1-0.3-0.1-0.5 0.7-0.6 1.4-0.7 2.1 0 0 0-0.1-0.4-0.1-0.4 0.6-0.5 1.4-0.6 2.1 0 0 0-0.1-0.3-0.2-0.4 0.3-0.5 0.7-0.6 1.2-1 2.1-1.9 4.2-3 6.6z"/>
		<path fill-rule="evenodd" class="s3" d="m448.5 39.5c27.5-10.3 52.9-8 75.8 10.5 12.9 10.4 20.2 24.5 21.4 40.9 1.1 14.7 0.3 29.5 0.3 44.8-1.7 0-3.5 0-5.2 0-35.2 0-70.4 0.1-105.5-0.1-5.1 0-6.9 1.3-6.4 6.4 1.1 11.4 0.6 23.1 3.2 34.2 4.9 21.3 21.6 33.8 43.6 34.9 17 0.8 33.5-2.2 49.8-6.4 1.6-0.4 3.2-0.8 5.2-1.3 1.3 5.9 2.5 11.5 3.8 17.4-20.9 6.3-41.8 9.8-63.2 7.5-7.8-0.9-15.8-3-23-6.1-24-10.5-36.1-30.4-37.9-55.5-1.7-23.8-1.7-48 0-71.8 1.7-25 14.3-44.3 38.1-55.4zm41.2 13c-3.5-0.4-6.9-1.1-10.4-1.2-21.9-0.9-38.7 9.6-46 28.8-4.4 11.5-4.7 23.7-4.2 35.9 0 1 2.2 2.9 3.4 2.9 30.1 0.2 60.2 0.1 90.4 0.1 3 0.1 4.2-1.2 4.1-4.1-0.1-5.7 0.1-11.4 0-17-0.6-22.6-15.1-40.5-37.3-45.4z"/>
		<path fill-rule="evenodd" class="s0" d="m-255.5 225.4c-25.6-8.2-39-26.7-44.3-51.6-1.9-9-2.7-18.5-2.7-27.7 0-17.5-0.3-35.1 1.9-52.4 2.8-23.2 13.3-43 35.9-52.7 28.2-12.2 56.2-11.3 81.7 7.6 13.9 10.2 21 25.4 23.5 42.1 4.1 27.1 4.8 54.6-0.2 81.6-7.9 42.8-40.2 59.7-79.7 56.2-5.3-0.5-10.5-1.9-16.1-3.1zm-27.5-107.9c0.3 14.7 0.1 29.3 1.1 43.9 0.8 12.6 4.6 24.6 13.1 34.4 10.7 12.3 24.9 15.6 40.5 15.4 27.1-0.5 44.9-15.3 49.3-42.1 3.9-23.9 3.5-48.2 0.7-72.1-3.5-28.8-19.3-43.4-46.6-45.6-25.8-2.1-44.7 8.8-52.9 30.8-4 11-5.3 22.6-5.2 35.3z"/>
		<path class="s0" d="m283.5 225.3c-5.5-1.4-10.6-2.8-16.1-4.2 1.2-6 2.3-11.7 3.5-17.5 9.6 2.1 18.7 4.4 28 5.9 12.5 2.1 25.1 3.1 37.5-1.2 12.3-4.3 21.4-12 23.5-25.3 2.2-14.3-2.5-26.6-15.1-33.8-12.2-7.1-25.3-12.4-38.1-18.4-12.1-5.7-23.9-12.1-30.4-24.6-11-21.2-7.5-54.6 24.1-67.3 24.5-9.9 48.9-4.8 73.4 1.8-1.7 6.1-3.3 11.6-4.6 16-13.4-1.9-26.1-4.1-39-5.3-9.2-0.9-18.3 0.9-26.3 6.1-16.8 10.9-17.8 36.9-0.9 48.4 10.5 7.2 22.8 11.8 34.5 17.3 11.5 5.4 22.9 10.5 31.6 20.2 18.8 20.9 18.1 67-24 81.4-18.4 6.3-37.1 4.7-55.8 1.8-1.8-0.3-3.6-0.8-5.8-1.3z"/>
		<path class="s0" d="m587 190.1c-5.2-12-7.5-24.2-7.6-36.8-0.2-17.9-0.6-36 0.9-53.9 1.9-23.7 11.1-44.1 33-56.5 12.2-6.9 25.5-9.2 39.3-9.4 17.4-0.1 34.4 2.8 51.5 7.9-1 5.6-2.1 11.1-3.1 16.6-10.2-1.9-19.9-4-29.7-5.5-12.7-1.9-25.6-2.3-38.1 1.6-18.4 5.8-28.7 19.4-31.7 37.6-4.4 26.9-5.1 54.1 0.6 80.9 5.2 24.5 22.4 37.6 47.3 38.5 17.3 0.6 34.1-2.3 51.4-6.7 1.2 5.6 2.2 11.1 3.4 16.8-26.1 6.8-51.7 11.7-78.1 3.8-18.3-5.5-31.1-17.3-39.1-34.9z"/>
	</g>
</svg>